<?xml version="1.0" encoding="UTF-8" standalone="no"?>
<!-- Created with Inkscape (http://www.inkscape.org/) -->

<svg
   xmlns:dc="http://purl.org/dc/elements/1.1/"
   xmlns:cc="http://creativecommons.org/ns#"
   xmlns:rdf="http://www.w3.org/1999/02/22-rdf-syntax-ns#"
   xmlns:svg="http://www.w3.org/2000/svg"
   xmlns="http://www.w3.org/2000/svg"
   xmlns:sodipodi="http://sodipodi.sourceforge.net/DTD/sodipodi-0.dtd"
   xmlns:inkscape="http://www.inkscape.org/namespaces/inkscape"
   width="423.72818mm"
   height="82.012543mm"
   viewBox="0 0 381.35535 73.811286"
   version="1.1"
   id="svg3423"
   inkscape:export-filename="C:\Users\suitedoalex\sites\hotels.com-logo-0.png"
   inkscape:export-xdpi="148.63"
   inkscape:export-ydpi="148.63"
   inkscape:version="0.92.4 (5da689c313, 2019-01-14)"
   sodipodi:docname="hotels-com-logo.svg">
  <defs
     id="defs3417" />
  <sodipodi:namedview
     id="base"
     pagecolor="#ffffff"
     bordercolor="#666666"
     borderopacity="1.0"
     inkscape:pageopacity="0.0"
     inkscape:pageshadow="2"
     inkscape:zoom="0.49497475"
     inkscape:cx="721.93607"
     inkscape:cy="242.68506"
     inkscape:document-units="mm"
     inkscape:current-layer="layer1"
     showgrid="false"
     inkscape:window-width="1600"
     inkscape:window-height="837"
     inkscape:window-x="-8"
     inkscape:window-y="-8"
     inkscape:window-maximized="1"
     scale-x="0.9"
     fit-margin-top="0"
     fit-margin-left="0"
     fit-margin-right="0"
     fit-margin-bottom="0" />
  <metadata
     id="metadata3420">
    <rdf:RDF>
      <cc:Work
         rdf:about="">
        <dc:format>image/svg+xml</dc:format>
        <dc:type
           rdf:resource="http://purl.org/dc/dcmitype/StillImage" />
        <dc:title></dc:title>
      </cc:Work>
    </rdf:RDF>
  </metadata>
  <g
     inkscape:label="Layer 1"
     inkscape:groupmode="layer"
     id="layer1"
     transform="translate(-101.5921,101.07933)">
    <g
       id="g1900"
       transform="matrix(5.0918386,0,0,-5.0918386,473.13549,-78.785704)"
       style="fill:#d32f2f;fill-opacity:1">
      <path
         d="m 0,0 c -0.069,0 -0.125,0.059 -0.125,0.125 v 0.843 h -0.241 c -0.058,0 -0.109,0.05 -0.109,0.109 0,0.063 0.051,0.111 0.109,0.111 h 0.73 C 0.422,1.188 0.473,1.14 0.473,1.077 0.473,1.018 0.422,0.968 0.364,0.968 H 0.123 V 0.125 C 0.123,0.059 0.067,0 0,0 M 1.802,0 C 1.734,0 1.679,0.059 1.679,0.125 V 0.858 L 1.366,0.046 C 1.355,0.02 1.329,0 1.3,0 1.27,0 1.244,0.02 1.234,0.046 L 0.92,0.858 V 0.125 C 0.92,0.059 0.867,0 0.799,0 0.729,0 0.674,0.059 0.674,0.125 v 0.871 c 0,0.113 0.09,0.205 0.201,0.205 0.087,0 0.16,-0.055 0.189,-0.133 L 1.3,0.455 1.537,1.068 c 0.027,0.078 0.102,0.133 0.187,0.133 0.112,0 0.203,-0.092 0.203,-0.205 V 0.125 C 1.927,0.059 1.871,0 1.802,0"
         style="fill:#d32f2f;fill-opacity:1;fill-rule:nonzero;stroke:none"
         id="path1902"
         inkscape:connector-curvature="0" />
    </g>
    <g
       id="g1904"
       transform="matrix(5.0918386,0,0,-5.0918386,146.69862,-86.721852)"
       style="fill:#d32f2f;fill-opacity:1">
      <path
         d="M 0,0 C 0,0.422 0.131,0.812 0.354,1.136 -0.314,0.939 -0.805,0.329 -0.805,-0.402 V -1.69 L 0,-1.73 Z"
         style="fill:#d32f2f;fill-opacity:1;fill-rule:nonzero;stroke:none"
         id="path1906"
         inkscape:connector-curvature="0" />
    </g>
    <g
       id="g1908"
       transform="matrix(5.0918386,0,0,-5.0918386,142.59877,-41.616259)"
       style="fill:#d32f2f;fill-opacity:1">
      <path
         d="M 0,0 C 0,-0.731 0.491,-1.342 1.159,-1.538 0.937,-1.214 0.805,-0.824 0.805,-0.402 V 2.014 H 0 Z"
         style="fill:#d32f2f;fill-opacity:1;fill-rule:nonzero;stroke:none"
         id="path1910"
         inkscape:connector-curvature="0" />
    </g>
    <g
       id="g1912"
       transform="matrix(5.0918386,0,0,-5.0918386,152.84963,-51.869715)"
       style="fill:#d32f2f;fill-opacity:1">
      <path
         d="m 0,0 h -0.805 v -2.416 c 0,-0.731 0.491,-1.342 1.159,-1.538 C 0.131,-3.631 0,-3.24 0,-2.818 Z"
         style="fill:#d32f2f;fill-opacity:1;fill-rule:nonzero;stroke:none"
         id="path1914"
         inkscape:connector-curvature="0" />
    </g>
    <g
       id="g1916"
       transform="matrix(5.0918386,0,0,-5.0918386,152.84963,-88.775891)"
       style="fill:#d32f2f;fill-opacity:1">
      <path
         d="M 0,0 C 0,0.421 0.131,0.812 0.354,1.136 -0.314,0.938 -0.805,0.328 -0.805,-0.403 V -2.154 L 0,-2.194 Z"
         style="fill:#d32f2f;fill-opacity:1;fill-rule:nonzero;stroke:none"
         id="path1918"
         inkscape:connector-curvature="0" />
    </g>
    <g
       id="g1920"
       transform="matrix(5.0918386,0,0,-5.0918386,106.62284,-91.401356)"
       style="fill:#d32f2f;fill-opacity:1">
      <path
         d="m 0,0 c -0.589,-0.352 -0.988,-0.988 -0.988,-1.724 v -7.65 c 0,-0.736 0.399,-1.373 0.988,-1.724 -0.117,0.284 -0.183,0.593 -0.183,0.918 v 9.261 c 0,0.325 0.066,0.636 0.183,0.919"
         style="fill:#d32f2f;fill-opacity:1;fill-rule:nonzero;stroke:none"
         id="path1922"
         inkscape:connector-curvature="0" />
    </g>
    <g
       id="g1924"
       transform="matrix(5.0918386,0,0,-5.0918386,111.84346,-90.824302)"
       style="fill:#d32f2f;fill-opacity:1">
      <path
         d="m 0,0 c 0,0.325 0.065,0.635 0.183,0.919 -0.59,-0.352 -0.988,-0.988 -0.988,-1.725 v -9.26 c 0,-0.866 0.549,-1.597 1.315,-1.882 C 0.191,-11.539 0,-11.026 0,-10.469 Z"
         style="fill:#d32f2f;fill-opacity:1;fill-rule:nonzero;stroke:none"
         id="path1926"
         inkscape:connector-curvature="0" />
    </g>
    <g
       id="g1928"
       transform="matrix(5.0918386,0,0,-5.0918386,163.10048,-96.975308)"
       style="fill:#d32f2f;fill-opacity:1">
      <path
         d="m 0,0 c -0.89,0 -1.61,-0.721 -1.61,-1.61 v -2.618 l -4.027,0.202 v 2.818 c 0,1.112 -0.902,2.014 -2.013,2.014 -1.112,0 -2.014,-0.902 -2.014,-2.014 v -10.469 c 0,-1.112 0.902,-2.013 2.014,-2.013 1.111,0 2.013,0.901 2.013,2.013 v 3.221 h 4.027 v -3.221 c 0,-0.889 0.72,-1.611 1.61,-1.611 0.89,0 1.611,0.722 1.611,1.611 V -1.61 C 1.611,-0.721 0.89,0 0,0"
         style="fill:#d32f2f;fill-opacity:1;fill-rule:nonzero;stroke:none"
         id="path1930"
         inkscape:connector-curvature="0" />
    </g>
    <g
       id="g1932"
       transform="matrix(5.0918386,0,0,-5.0918386,233.89131,-47.041689)"
       style="fill:#d32f2f;fill-opacity:1">
      <path
         d="M 0,0 V 2.982 H -4.35 V 0 c 0,-0.317 -0.259,-0.589 -0.577,-0.589 -0.33,0 -0.601,0.272 -0.601,0.589 v 6.802 c 0,0.318 0.271,0.589 0.589,0.589 0.33,0 0.589,-0.271 0.589,-0.589 V 4.031 H 0 v 2.771 c 0,0.318 0.259,0.589 0.589,0.589 0.33,0 0.59,-0.271 0.59,-0.589 L 1.179,0 c 0,-0.317 -0.26,-0.589 -0.59,-0.589 C 0.259,-0.589 0,-0.317 0,0"
         style="fill:#d32f2f;fill-opacity:1;fill-rule:nonzero;stroke:none"
         id="path1934"
         inkscape:connector-curvature="0" />
    </g>
    <g
       id="g1936"
       transform="matrix(5.0918386,0,0,-5.0918386,244.13452,-58.865949)"
       style="fill:#d32f2f;fill-opacity:1">
      <path
         d="M 0,0 C 0,1.639 1.108,2.982 2.876,2.982 4.656,2.982 5.752,1.639 5.752,0 5.752,-1.649 4.656,-2.993 2.876,-2.993 1.108,-2.993 0,-1.649 0,0 M 4.644,0 C 4.644,1.073 4.02,2.039 2.876,2.039 1.745,2.039 1.108,1.073 1.108,0 c 0,-1.084 0.637,-2.051 1.768,-2.051 1.144,0 1.768,0.967 1.768,2.051"
         style="fill:#d32f2f;fill-opacity:1;fill-rule:nonzero;stroke:none"
         id="path1938"
         inkscape:connector-curvature="0" />
    </g>
    <g
       id="g1940"
       transform="matrix(5.0918386,0,0,-5.0918386,304.81912,-74.052363)"
       style="fill:#d32f2f;fill-opacity:1">
      <path
         d="m 0,0 c 1.709,0 2.77,-1.332 2.77,-2.829 0,-0.318 -0.224,-0.507 -0.625,-0.507 h -3.878 c 0.083,-0.967 0.79,-1.768 1.933,-1.768 0.484,0 0.99,0.154 1.415,0.459 0.059,0.048 0.141,0.06 0.235,0.06 0.236,0 0.425,-0.188 0.425,-0.425 0,-0.153 -0.071,-0.27 -0.189,-0.353 -0.565,-0.412 -1.237,-0.613 -1.992,-0.613 -1.697,0 -2.947,1.203 -2.947,2.994 C -2.853,-1.332 -1.662,0 0,0 M -1.745,-2.569 H 1.732 C 1.709,-1.815 1.202,-0.872 0,-0.872 c -1.144,0 -1.686,-0.92 -1.745,-1.697"
         style="fill:#d32f2f;fill-opacity:1;fill-rule:nonzero;stroke:none"
         id="path1942"
         inkscape:connector-curvature="0" />
    </g>
    <g
       id="g1944"
       transform="matrix(5.0918386,0,0,-5.0918386,322.35951,-46.743348)"
       style="fill:#d32f2f;fill-opacity:1">
      <path
         d="m 0,0 v 6.919 c 0,0.295 0.236,0.53 0.531,0.53 0.282,0 0.53,-0.235 0.53,-0.53 V 0 c 0,-0.295 -0.248,-0.53 -0.53,-0.53 C 0.236,-0.53 0,-0.295 0,0"
         style="fill:#d32f2f;fill-opacity:1;fill-rule:nonzero;stroke:none"
         id="path1946"
         inkscape:connector-curvature="0" />
    </g>
    <g
       id="g1948"
       transform="matrix(5.0918386,0,0,-5.0918386,331.23557,-48.782088)"
       style="fill:#d32f2f;fill-opacity:1">
      <path
         d="m 0,0 c 0,0.26 0.2,0.46 0.459,0.46 0.095,0 0.189,-0.035 0.26,-0.082 0.436,-0.318 1.002,-0.543 1.603,-0.543 0.802,0 1.226,0.331 1.226,0.813 0,0.567 -0.649,0.755 -1.38,0.92 -0.966,0.224 -2.097,0.484 -2.097,1.709 0,0.908 0.778,1.686 2.169,1.686 0.789,0 1.414,-0.235 1.897,-0.59 C 4.243,4.291 4.326,4.173 4.326,4.02 4.326,3.784 4.125,3.584 3.89,3.584 3.807,3.584 3.713,3.619 3.654,3.666 3.289,3.938 2.793,4.103 2.251,4.103 1.532,4.103 1.084,3.819 1.084,3.359 1.084,2.864 1.697,2.699 2.405,2.534 3.395,2.311 4.573,2.04 4.573,0.731 c 0,-0.978 -0.801,-1.744 -2.298,-1.744 -0.79,0 -1.497,0.201 -2.075,0.636 C 0.083,-0.294 0,-0.152 0,0"
         style="fill:#d32f2f;fill-opacity:1;fill-rule:nonzero;stroke:none"
         id="path1950"
         inkscape:connector-curvature="0" />
    </g>
    <g
       id="g1952"
       transform="matrix(5.0918386,0,0,-5.0918386,361.60738,-51.183399)"
       style="fill:#d32f2f;fill-opacity:1">
      <path
         d="M 0,0 C 0.4,0 0.743,-0.33 0.743,-0.73 0.743,-1.131 0.4,-1.473 0,-1.473 c -0.401,0 -0.731,0.342 -0.731,0.743 0,0.4 0.33,0.73 0.731,0.73"
         style="fill:#d32f2f;fill-opacity:1;fill-rule:nonzero;stroke:none"
         id="path1954"
         inkscape:connector-curvature="0" />
    </g>
    <g
       id="g1956"
       transform="matrix(5.0918386,0,0,-5.0918386,393.42876,-58.865949)"
       style="fill:#d32f2f;fill-opacity:1">
      <path
         d="M 0,0 C 0,1.639 1.108,2.982 2.876,2.982 4.656,2.982 5.752,1.639 5.752,0 5.752,-1.649 4.656,-2.993 2.876,-2.993 1.108,-2.993 0,-1.649 0,0 M 4.644,0 C 4.644,1.073 4.02,2.039 2.876,2.039 1.745,2.039 1.108,1.073 1.108,0 c 0,-1.084 0.637,-2.051 1.768,-2.051 1.144,0 1.768,0.967 1.768,2.051"
         style="fill:#d32f2f;fill-opacity:1;fill-rule:nonzero;stroke:none"
         id="path1958"
         inkscape:connector-curvature="0" />
    </g>
    <g
       id="g1960"
       transform="matrix(5.0918386,0,0,-5.0918386,467.4071,-65.290903)"
       style="fill:#d32f2f;fill-opacity:1">
      <path
         d="m 0,0 v -3.643 c 0,-0.295 -0.248,-0.53 -0.542,-0.53 -0.283,0 -0.519,0.235 -0.519,0.53 v 3.325 c 0,0.66 -0.294,0.977 -0.99,0.977 -0.578,0 -1.144,-0.649 -1.415,-1.061 v -3.241 c 0,-0.295 -0.235,-0.53 -0.53,-0.53 -0.283,0 -0.53,0.235 -0.53,0.53 v 3.325 c 0,0.66 -0.284,0.977 -1.002,0.977 -0.554,0 -1.108,-0.687 -1.391,-1.1 v -3.202 c 0,-0.295 -0.248,-0.53 -0.531,-0.53 -0.295,0 -0.53,0.235 -0.53,0.53 v 4.75 c 0,0.295 0.235,0.531 0.519,0.531 0.294,0 0.542,-0.236 0.542,-0.531 v -0.33 c 0.235,0.354 0.99,0.944 1.838,0.944 0.861,0 1.368,-0.449 1.545,-1.061 0.329,0.53 1.1,1.061 1.937,1.061 C -0.55,1.721 0,1.144 0,0"
         style="fill:#d32f2f;fill-opacity:1;fill-rule:nonzero;stroke:none"
         id="path1962"
         inkscape:connector-curvature="0" />
    </g>
    <g
       id="g1964"
       transform="matrix(5.0918386,0,0,-5.0918386,381.57707,-74.052363)"
       style="fill:#d32f2f;fill-opacity:1">
      <path
         d="m 0,0 c 0.813,0 1.378,-0.26 1.815,-0.66 0.094,-0.082 0.165,-0.224 0.165,-0.354 0,-0.271 -0.212,-0.483 -0.472,-0.483 -0.13,0 -0.236,0.047 -0.318,0.118 -0.33,0.306 -0.695,0.436 -1.143,0.436 -1.12,0 -1.839,-0.861 -1.839,-2.039 0,-1.179 0.72,-2.013 1.839,-2.051 0.755,-0.026 1.516,0.523 2.127,1.488 0.076,0.12 0.188,0.343 0.28,0.459 0.173,0.219 0.296,0.114 0.399,0.008 C 3.04,-3.274 3.038,-3.738 2.916,-3.967 2.572,-4.608 2.284,-4.906 1.954,-5.228 1.497,-5.672 0.813,-5.976 0,-5.976 c -1.721,0 -2.9,1.285 -2.9,2.994 C -2.9,-1.273 -1.721,0 0,0"
         style="fill:#d32f2f;fill-opacity:1;fill-rule:nonzero;stroke:none"
         id="path1966"
         inkscape:connector-curvature="0" />
    </g>
    <g
       id="g1968"
       transform="matrix(5.0918386,0,0,-5.0918386,294.15071,-48.786707)"
       style="fill:#d32f2f;fill-opacity:1">
      <path
         d="m 0,0 c 0,-0.2 -0.574,-0.649 -0.987,-0.849 -0.235,-0.114 -0.471,-0.165 -0.813,-0.165 -0.896,0 -1.355,0.506 -1.355,1.403 V 3.89 h -0.543 c -0.247,0 -0.471,0.212 -0.471,0.47 0,0.248 0.224,0.46 0.471,0.46 h 0.543 v 1.084 c 0,0.295 0.235,0.532 0.53,0.532 0.283,0 0.53,-0.237 0.53,-0.532 V 4.82 h 0.743 c 0.259,0 0.471,-0.212 0.471,-0.46 0,-0.258 -0.212,-0.47 -0.471,-0.47 H -2.095 V 0.624 c 0,-0.4 0.189,-0.695 0.554,-0.695 0.649,0 1.159,1.008 1.446,1.008 C 0.176,0.937 0,0.26 0,0"
         style="fill:#d32f2f;fill-opacity:1;fill-rule:nonzero;stroke:none"
         id="path1970"
         inkscape:connector-curvature="0" />
    </g>
  </g>
</svg>
