<svg xmlns="http://www.w3.org/2000/svg" width="175" height="24" fill="none"><g clip-path="url(#a)"><path fill="#11233A" d="M42.528 9.47a.5.5 0 0 1-.5.5h-3.116v6.656c0 .555.139.96.416 1.216.277.256.682.405 1.216.448.41.017.895.014 1.457-.008a.506.506 0 0 1 .527.504v2.77a.493.493 0 0 1-.445.492c-2.603.244-4.46-.038-5.571-.846-1.152-.853-1.728-2.379-1.728-4.576V9.97H32.5a.5.5 0 0 1-.5-.5V6.502a.5.5 0 0 1 .5-.5h2.284V2.5a.5.5 0 0 1 .5-.5h3.128a.5.5 0 0 1 .5.5v3.502h3.116a.5.5 0 0 1 .5.5V9.47zm6.648-.716c.384-1.024 1.014-1.792 1.888-2.304a5.802 5.802 0 0 1 2.477-.75c.275-.02.5.206.5.482v3.545c0 .3-.263.53-.562.523a4.83 4.83 0 0 0-2.83.808c-.982.662-1.473 1.76-1.473 3.296v7.148a.5.5 0 0 1-.5.5h-3.128a.5.5 0 0 1-.5-.5v-15a.5.5 0 0 1 .5-.5h3.628v2.752zm18.777-2.252a.5.5 0 0 1 .5-.5h3.128a.5.5 0 0 1 .5.5v15a.5.5 0 0 1-.5.5h-3.128a.5.5 0 0 1-.5-.5v-1.388c-1.237 1.557-2.976 2.336-5.216 2.336-2.133 0-3.968-.81-5.504-2.432-1.514-1.643-2.272-3.648-2.272-6.016s.758-4.362 2.272-5.984c1.536-1.642 3.37-2.464 5.504-2.464 2.24 0 3.979.779 5.216 2.336V6.502zm-7.616 10.764c.832.832 1.888 1.248 3.168 1.248 1.28 0 2.336-.416 3.168-1.248.853-.853 1.28-1.941 1.28-3.264 0-1.322-.427-2.4-1.28-3.232-.832-.853-1.888-1.28-3.168-1.28-1.28 0-2.336.427-3.168 1.28-.832.832-1.248 1.91-1.248 3.232 0 1.323.416 2.41 1.248 3.264zM85.595 6.338a.5.5 0 0 1 .472-.336h3.464a.5.5 0 0 1 .467.678l-5.7 15a.5.5 0 0 1-.467.322h-4.014a.5.5 0 0 1-.467-.322l-5.7-15a.5.5 0 0 1 .467-.678h3.463a.5.5 0 0 1 .472.337l3.756 10.863 3.787-10.864zm8.875 9.36c.554 2.005 2.058 3.008 4.511 3.008 1.403 0 2.503-.421 3.3-1.264a.547.547 0 0 1 .666-.116l2.476 1.429a.477.477 0 0 1 .148.708c-1.566 1.991-3.784 2.987-6.654 2.987-2.645 0-4.768-.8-6.368-2.4-1.6-1.6-2.4-3.616-2.4-6.048 0-2.41.79-4.416 2.368-6.016 1.579-1.621 3.606-2.432 6.08-2.432 2.347 0 4.278.81 5.792 2.432 1.536 1.622 2.304 3.627 2.304 6.016 0 .409-.031.836-.094 1.283a.484.484 0 0 1-.484.413H94.469zm-.065-3.2h8.16c-.234-1.088-.725-1.898-1.472-2.432-.725-.533-1.557-.8-2.496-.8-1.109 0-2.026.288-2.752.864-.725.555-1.205 1.344-1.44 2.368zm15.03 9.504a.5.5 0 0 1-.5-.5V2.5a.5.5 0 0 1 .5-.5h3.128a.5.5 0 0 1 .5.5v19.002a.5.5 0 0 1-.5.5h-3.128zm15.033-16.448c1.75 0 3.19.587 4.32 1.76 1.152 1.174 1.728 2.795 1.728 4.864v9.324a.5.5 0 0 1-.5.5h-3.128a.5.5 0 0 1-.5-.5V12.69c0-1.066-.288-1.877-.864-2.432-.576-.576-1.344-.864-2.304-.864-1.066 0-1.919.33-2.559.992-.64.662-.96 1.654-.96 2.976v8.14a.5.5 0 0 1-.5.5h-3.128a.5.5 0 0 1-.5-.5v-15a.5.5 0 0 1 .5-.5h3.128a.5.5 0 0 1 .5.5v1.292c1.002-1.493 2.591-2.24 4.767-2.24zm12.421 10.144c.555 2.005 2.059 3.008 4.512 3.008 1.403 0 2.503-.421 3.299-1.264a.547.547 0 0 1 .666-.116l2.477 1.429a.478.478 0 0 1 .148.708c-1.567 1.991-3.785 2.987-6.654 2.987-2.645 0-4.768-.8-6.368-2.4-1.6-1.6-2.4-3.616-2.4-6.048 0-2.41.789-4.416 2.368-6.016 1.579-1.621 3.605-2.432 6.08-2.432 2.347 0 4.277.81 5.792 2.432 1.536 1.622 2.304 3.627 2.304 6.016 0 .409-.032.836-.094 1.283a.486.486 0 0 1-.485.413h-11.645zm-.064-3.2h8.16c-.235-1.088-.725-1.898-1.472-2.432-.725-.533-1.557-.8-2.496-.8-1.109 0-2.027.288-2.752.864-.725.555-1.205 1.344-1.44 2.368zm18.372-1.952c0 .427.277.779.832 1.056.576.256 1.269.49 2.08.704.811.192 1.621.448 2.432.768.811.299 1.493.81 2.048 1.536.576.725.864 1.632.864 2.72 0 1.643-.619 2.912-1.856 3.808-1.216.875-2.741 1.312-4.576 1.312-3.101 0-5.271-1.131-6.509-3.393a.477.477 0 0 1 .194-.643l2.654-1.492c.273-.154.615-.018.763.258.543 1.017 1.509 1.526 2.898 1.526 1.472 0 2.208-.459 2.208-1.376 0-.427-.288-.768-.864-1.024-.555-.277-1.237-.523-2.048-.736a21.573 21.573 0 0 1-2.432-.8 5.169 5.169 0 0 1-2.08-1.504c-.554-.704-.832-1.579-.832-2.624 0-1.578.576-2.816 1.728-3.712 1.173-.917 2.624-1.376 4.352-1.376 1.301 0 2.485.299 3.552.896a6.265 6.265 0 0 1 2.261 2.063.473.473 0 0 1-.18.677l-2.607 1.422c-.253.138-.566.031-.726-.208-.522-.78-1.289-1.17-2.3-1.17-.533 0-.981.118-1.344.352a1.107 1.107 0 0 0-.512.96zM175 9.47a.5.5 0 0 1-.5.5h-3.116v6.656c0 .555.139.96.416 1.216.277.256.683.405 1.216.448.41.017.896.014 1.457-.008a.506.506 0 0 1 .527.504v2.77a.493.493 0 0 1-.445.492c-2.603.244-4.46-.038-5.571-.846-1.152-.853-1.728-2.379-1.728-4.576V9.97h-2.284a.5.5 0 0 1-.5-.5V6.502a.5.5 0 0 1 .5-.5h2.284V2.5a.5.5 0 0 1 .5-.5h3.128a.5.5 0 0 1 .5.5v3.502h3.116a.5.5 0 0 1 .5.5V9.47z"/><path fill="#4368E7" fill-rule="evenodd" d="M24.004 18a2 2 0 0 1-.586 1.414l-4 4c-.412.413-.92.595-1.418.59-1.022-.01-1.996-.805-1.996-2.004V12a4 4 0 0 0-4-4h-10C.804 8 .007 7.023 0 6a1.958 1.958 0 0 1 .59-1.414l4-4A2 2 0 0 1 6.004 0h14a4 4 0 0 1 4 4v14zm-22-2a2 2 0 0 0-2 2v4a2 2 0 0 0 2 2h4a2 2 0 0 0 2-2v-4a2 2 0 0 0-2-2h-4z" clip-rule="evenodd"/></g><defs><clipPath id="a"><path fill="#fff" d="M0 0h175v24H0z"/></clipPath></defs></svg>