<svg xmlns="http://www.w3.org/2000/svg" width="309" height="48" fill="none"><path fill="#11223A" fill-opacity=".94" d="M3.034 6.364V18H1.278V6.364h1.756zm3.7 0v1.09c0 .323-.06.662-.181 1.018a4.296 4.296 0 0 1-.5 1.017 3.68 3.68 0 0 1-.761.84l-.841-.602c.223-.325.416-.672.58-1.04a2.91 2.91 0 0 0 .25-1.215V6.364h1.454zM7.939 18V9.273H9.57v1.42h.108c.182-.48.48-.856.892-1.125.413-.273.907-.409 1.483-.409.583 0 1.072.136 1.466.41.398.272.691.647.88 1.124h.091c.209-.466.54-.837.995-1.113.454-.28.996-.42 1.625-.42.791 0 1.437.247 1.937.743.504.497.756 1.245.756 2.245V18h-1.699v-5.693c0-.591-.16-1.02-.483-1.284a1.757 1.757 0 0 0-1.153-.398c-.553 0-.983.17-1.29.511-.307.338-.46.771-.46 1.302V18h-1.694v-5.801c0-.474-.147-.854-.443-1.142-.295-.288-.68-.432-1.153-.432-.322 0-.62.085-.892.256-.27.166-.487.4-.654.698-.162.3-.244.646-.244 1.04V18h-1.7zm18.015 0V9.273h1.7V18h-1.7zm.858-10.074a1.08 1.08 0 0 1-.761-.295.96.96 0 0 1-.313-.716c0-.28.105-.52.313-.716.212-.2.466-.301.761-.301.296 0 .548.1.756.3a.94.94 0 0 1 .318.717.953.953 0 0 1-.318.716 1.06 1.06 0 0 1-.756.295zm4.645 4.892V18h-1.698V9.273h1.63v1.42h.108a2.49 2.49 0 0 1 .944-1.113c.431-.28.975-.42 1.63-.42.595 0 1.116.124 1.563.374.447.246.793.614 1.04 1.102.246.489.369 1.093.369 1.813V18h-1.7v-5.347c0-.632-.164-1.127-.493-1.482-.33-.36-.783-.54-1.358-.54a2.13 2.13 0 0 0-1.051.255c-.303.17-.544.42-.722.75-.174.326-.262.72-.262 1.182zm11.758-3.545v1.363h-4.767V9.273h4.767zm-3.489-2.091h1.7v8.255c0 .33.049.578.147.745a.77.77 0 0 0 .38.335c.16.057.332.085.518.085.136 0 .255-.01.358-.028l.238-.046.307 1.404a2.856 2.856 0 0 1-.42.114c-.182.041-.41.064-.682.068a2.99 2.99 0 0 1-1.25-.239 2.145 2.145 0 0 1-.938-.773c-.238-.348-.358-.786-.358-1.312V7.182zm8.856 10.994c-.86 0-1.6-.184-2.222-.551a3.738 3.738 0 0 1-1.431-1.563c-.334-.674-.5-1.464-.5-2.369 0-.894.166-1.682.5-2.364a3.882 3.882 0 0 1 1.409-1.596c.606-.383 1.314-.574 2.125-.574.492 0 .97.082 1.431.244.462.163.877.419 1.245.768.367.348.657.8.869 1.357.212.553.318 1.226.318 2.018v.602h-6.937v-1.273h5.273a2.52 2.52 0 0 0-.273-1.188 2.062 2.062 0 0 0-.767-.823c-.326-.201-.709-.302-1.148-.302-.477 0-.894.118-1.25.353a2.364 2.364 0 0 0-.818.909c-.19.371-.284.774-.284 1.21v.994c0 .584.102 1.08.306 1.489.209.41.499.722.87.938.371.212.805.318 1.301.318.322 0 .616-.046.88-.137.266-.094.495-.235.688-.42.193-.186.341-.415.443-.688l1.608.29c-.128.474-.36.888-.693 1.245a3.36 3.36 0 0 1-1.244.823c-.496.194-1.063.29-1.7.29zM54.03 18V9.273h1.641v1.386h.091c.16-.47.44-.839.841-1.108a2.404 2.404 0 0 1 1.375-.409 7.255 7.255 0 0 1 .722.04v1.625a3.05 3.05 0 0 0-.364-.063 3.473 3.473 0 0 0-.523-.04c-.401 0-.76.086-1.074.256a1.9 1.9 0 0 0-1.011 1.71V18H54.03zm9.409.176c-.86 0-1.6-.184-2.222-.551a3.737 3.737 0 0 1-1.432-1.563c-.333-.674-.5-1.464-.5-2.369 0-.894.167-1.682.5-2.364a3.883 3.883 0 0 1 1.41-1.596c.605-.383 1.314-.574 2.124-.574.493 0 .97.082 1.432.244.462.163.877.419 1.245.768.367.348.657.8.869 1.357.212.553.318 1.226.318 2.018v.602h-6.938v-1.273h5.273c0-.447-.09-.843-.273-1.188a2.062 2.062 0 0 0-.767-.823c-.325-.201-.708-.302-1.147-.302-.478 0-.894.118-1.25.353a2.364 2.364 0 0 0-.819.909 2.626 2.626 0 0 0-.284 1.21v.994c0 .584.103 1.08.307 1.489.209.41.498.722.87.938.37.212.805.318 1.3.318.323 0 .616-.046.881-.137.266-.094.495-.235.688-.42a1.84 1.84 0 0 0 .443-.688l1.608.29c-.129.474-.36.888-.693 1.245a3.36 3.36 0 0 1-1.245.823c-.496.194-1.062.29-1.698.29zm11.989-6.773-1.54.273a1.825 1.825 0 0 0-.307-.562 1.52 1.52 0 0 0-.557-.438c-.235-.114-.528-.17-.88-.17-.481 0-.883.108-1.205.323-.322.213-.483.487-.483.824 0 .292.108.527.324.705.216.178.564.324 1.045.438l1.387.318c.803.185 1.401.471 1.795.858.394.386.591.888.591 1.505 0 .523-.151.989-.454 1.398-.3.405-.718.724-1.256.954-.534.232-1.153.347-1.858.347-.977 0-1.775-.208-2.392-.625-.617-.42-.996-1.017-1.136-1.79l1.642-.25c.102.428.312.752.63.972.319.216.733.324 1.245.324.556 0 1.002-.116 1.335-.347.333-.235.5-.52.5-.858a.891.891 0 0 0-.307-.687c-.2-.186-.51-.326-.926-.42l-1.477-.324c-.815-.186-1.417-.482-1.807-.887-.387-.405-.58-.918-.58-1.54a2.2 2.2 0 0 1 .432-1.352c.288-.386.686-.687 1.193-.903.508-.22 1.09-.33 1.745-.33.943 0 1.685.205 2.227.614.541.405.9.949 1.074 1.63zm5.932-2.13v1.363h-4.767V9.273h4.767zm-3.489-2.091h1.7v8.255c0 .33.048.578.147.745a.77.77 0 0 0 .38.335c.16.057.332.085.518.085.136 0 .255-.01.358-.028l.238-.046.307 1.404a2.854 2.854 0 0 1-.42.114 3.333 3.333 0 0 1-.682.068 2.99 2.99 0 0 1-1.25-.239 2.145 2.145 0 0 1-.938-.773c-.238-.348-.358-.786-.358-1.312V7.182zm8.856 10.994c-.86 0-1.6-.184-2.222-.551a3.738 3.738 0 0 1-1.432-1.563c-.333-.674-.5-1.464-.5-2.369 0-.894.167-1.682.5-2.364a3.882 3.882 0 0 1 1.41-1.596c.606-.383 1.314-.574 2.125-.574.492 0 .97.082 1.431.244.462.163.877.419 1.245.768.367.348.657.8.869 1.357.212.553.318 1.226.318 2.018v.602h-6.937v-1.273h5.272c0-.447-.09-.843-.272-1.188a2.062 2.062 0 0 0-.767-.823c-.326-.201-.709-.302-1.148-.302-.477 0-.894.118-1.25.353a2.365 2.365 0 0 0-.818.909c-.19.371-.284.774-.284 1.21v.994c0 .584.102 1.08.306 1.489.209.41.499.722.87.938.37.212.805.318 1.3.318.323 0 .616-.046.882-.137.265-.094.494-.235.687-.42a1.84 1.84 0 0 0 .443-.688l1.608.29c-.129.474-.36.888-.693 1.245a3.36 3.36 0 0 1-1.244.823c-.497.194-1.063.29-1.7.29zm8.716-.005c-.704 0-1.333-.18-1.886-.54-.55-.364-.981-.881-1.296-1.552-.31-.674-.466-1.482-.466-2.426 0-.943.158-1.75.472-2.42.318-.67.754-1.184 1.307-1.54a3.398 3.398 0 0 1 1.88-.534c.542 0 .978.091 1.307.273.334.178.591.386.773.625.186.239.33.449.432.63h.102V6.364h1.699V18h-1.66v-1.358h-.141a4.49 4.49 0 0 1-.443.636c-.19.239-.451.447-.784.625-.334.178-.766.268-1.296.268zm.375-1.45c.489 0 .902-.128 1.239-.386.34-.261.598-.623.772-1.085.178-.462.267-1 .267-1.614 0-.606-.087-1.136-.26-1.59-.175-.455-.43-.81-.768-1.063-.337-.254-.754-.38-1.25-.38-.511 0-.937.132-1.278.397-.341.265-.599.627-.773 1.085-.17.459-.256.976-.256 1.551 0 .584.087 1.108.262 1.574.174.466.431.835.772 1.108.345.27.77.404 1.273.404zM106.067 18V9.273h1.699V18h-1.699zm.858-10.074a1.08 1.08 0 0 1-.761-.295.959.959 0 0 1-.313-.716c0-.28.104-.52.313-.716.212-.2.466-.301.761-.301s.547.1.756.3a.941.941 0 0 1 .318.717.953.953 0 0 1-.318.716 1.063 1.063 0 0 1-.756.295zm4.645 4.892V18h-1.699V9.273h1.631v1.42h.108c.201-.462.515-.833.943-1.113.432-.28.976-.42 1.631-.42.595 0 1.115.124 1.562.374.447.246.794.614 1.04 1.102.246.489.37 1.093.37 1.813V18h-1.699v-5.347c0-.632-.165-1.127-.495-1.482-.329-.36-.782-.54-1.358-.54-.394 0-.744.085-1.051.255-.303.17-.543.42-.721.75-.175.326-.262.72-.262 1.182zM123.445 18V6.364h1.699v4.324h.102c.098-.182.24-.393.426-.631.186-.239.443-.447.773-.625.329-.182.765-.273 1.306-.273.705 0 1.334.178 1.887.534.553.356.987.87 1.301 1.54.318.67.477 1.477.477 2.42 0 .944-.157 1.752-.471 2.426-.315.671-.747 1.188-1.296 1.552-.549.36-1.176.54-1.88.54-.531 0-.964-.09-1.302-.268a2.473 2.473 0 0 1-.784-.625 4.725 4.725 0 0 1-.437-.636h-.142V18h-1.659zm1.664-4.364c0 .614.089 1.152.267 1.614.179.462.436.824.773 1.085.337.258.75.387 1.239.387.507 0 .932-.135 1.273-.404.34-.273.598-.642.772-1.108.178-.466.267-.99.267-1.574a4.34 4.34 0 0 0-.261-1.55c-.17-.46-.428-.82-.773-1.086-.341-.265-.767-.398-1.278-.398-.493 0-.909.127-1.25.381-.337.254-.593.608-.767 1.063-.174.454-.262.984-.262 1.59zm11.711 4.54c-.818 0-1.532-.187-2.142-.562a3.79 3.79 0 0 1-1.42-1.574c-.338-.674-.506-1.462-.506-2.364 0-.905.168-1.697.506-2.375a3.783 3.783 0 0 1 1.42-1.58c.61-.374 1.324-.562 2.142-.562.818 0 1.532.188 2.142.563.61.375 1.083.901 1.421 1.58.337.677.505 1.469.505 2.374 0 .902-.168 1.69-.505 2.364a3.8 3.8 0 0 1-1.421 1.574c-.61.375-1.324.562-2.142.562zm.006-1.426c.53 0 .969-.14 1.318-.42a2.47 2.47 0 0 0 .773-1.12c.17-.466.255-.979.255-1.54 0-.556-.085-1.068-.255-1.534a2.506 2.506 0 0 0-.773-1.13c-.349-.284-.788-.427-1.318-.427-.534 0-.978.143-1.33.427a2.539 2.539 0 0 0-.778 1.13c-.167.466-.25.978-.25 1.535 0 .56.083 1.073.25 1.54.17.465.43.838.778 1.118.352.28.796.421 1.33.421zm9.455 1.426c-.819 0-1.533-.187-2.142-.562a3.792 3.792 0 0 1-1.421-1.574c-.337-.674-.506-1.462-.506-2.364 0-.905.169-1.697.506-2.375a3.785 3.785 0 0 1 1.421-1.58c.609-.374 1.323-.562 2.142-.562.818 0 1.532.188 2.142.563.61.375 1.083.901 1.42 1.58.337.677.506 1.469.506 2.374 0 .902-.169 1.69-.506 2.364a3.79 3.79 0 0 1-1.42 1.574c-.61.375-1.324.562-2.142.562zm.005-1.426c.531 0 .97-.14 1.319-.42.348-.28.606-.654.772-1.12.171-.466.256-.979.256-1.54 0-.556-.085-1.068-.256-1.534a2.497 2.497 0 0 0-.772-1.13c-.349-.284-.788-.427-1.319-.427-.534 0-.977.143-1.329.427a2.54 2.54 0 0 0-.779 1.13c-.166.466-.25.978-.25 1.535 0 .56.084 1.073.25 1.54.171.465.43.838.779 1.118.352.28.795.421 1.329.421zm7.342-1.71-.012-2.074h.296l3.477-3.693h2.034l-3.966 4.204h-.267l-1.562 1.563zM152.065 18V6.364h1.699V18h-1.699zm5.512 0-3.125-4.148 1.17-1.187 4.04 5.335h-2.085zm3.214 0V9.273h1.699V18h-1.699zm.858-10.074a1.08 1.08 0 0 1-.761-.295.961.961 0 0 1-.312-.716.95.95 0 0 1 .312-.716c.212-.2.466-.301.761-.301.296 0 .548.1.756.3a.941.941 0 0 1 .318.717.953.953 0 0 1-.318.716 1.06 1.06 0 0 1-.756.295zm4.646 4.892V18h-1.699V9.273h1.63v1.42h.108c.201-.462.516-.833.944-1.113.431-.28.975-.42 1.63-.42.595 0 1.116.124 1.563.374.447.246.793.614 1.04 1.102.246.489.369 1.093.369 1.813V18h-1.699v-5.347c0-.632-.165-1.127-.494-1.482-.33-.36-.782-.54-1.358-.54a2.13 2.13 0 0 0-1.051.255c-.303.17-.544.42-.722.75-.174.326-.261.72-.261 1.182zm11.342 8.636c-.693 0-1.289-.09-1.789-.272-.497-.182-.902-.422-1.216-.722a3.016 3.016 0 0 1-.705-.983l1.46-.602c.103.167.239.343.409.528.175.19.41.35.705.483.299.133.684.2 1.153.2.644 0 1.177-.158 1.597-.472.42-.311.631-.807.631-1.489v-1.716h-.108a3.93 3.93 0 0 1-.443.62c-.19.227-.451.424-.785.59-.333.167-.767.25-1.301.25-.689 0-1.31-.16-1.863-.483-.55-.325-.985-.805-1.307-1.437-.318-.636-.477-1.419-.477-2.347 0-.928.157-1.723.471-2.386.318-.663.754-1.17 1.307-1.523a3.399 3.399 0 0 1 1.881-.534c.541 0 .979.091 1.312.273.334.178.593.386.779.625.189.239.335.449.437.63h.125V9.274h1.665v8.92c0 .75-.174 1.366-.523 1.847-.348.48-.82.837-1.415 1.068-.591.231-1.257.346-2 .346zm-.017-4.994c.489 0 .902-.113 1.239-.34.341-.232.598-.561.773-.99.178-.431.267-.948.267-1.55 0-.588-.087-1.105-.262-1.552-.174-.447-.43-.795-.767-1.045-.337-.254-.753-.38-1.25-.38-.511 0-.937.132-1.278.397a2.397 2.397 0 0 0-.773 1.068c-.17.45-.255.955-.255 1.511 0 .572.087 1.074.261 1.506.174.432.432.77.773 1.012.344.242.769.363 1.272.363zm11.182 4.813c-.254 0-.485-.021-.694-.063a2.2 2.2 0 0 1-.466-.125l.41-1.392c.31.083.587.12.829.108a.99.99 0 0 0 .642-.273c.19-.17.356-.448.5-.835l.21-.58-3.193-8.84h1.818l2.211 6.773h.09l2.211-6.773h1.824l-3.597 9.892a3.968 3.968 0 0 1-.636 1.153 2.476 2.476 0 0 1-.921.716c-.356.16-.769.239-1.238.239zm11.187-3.097c-.818 0-1.532-.187-2.142-.562a3.797 3.797 0 0 1-1.42-1.574c-.337-.674-.506-1.462-.506-2.364 0-.905.169-1.697.506-2.375a3.79 3.79 0 0 1 1.42-1.58c.61-.374 1.324-.562 2.142-.562.819 0 1.533.188 2.142.563a3.78 3.78 0 0 1 1.421 1.58c.337.677.506 1.469.506 2.374 0 .902-.169 1.69-.506 2.364a3.792 3.792 0 0 1-1.421 1.574c-.609.375-1.323.562-2.142.562zm.006-1.426c.53 0 .97-.14 1.318-.42.349-.28.606-.654.773-1.12.17-.466.256-.979.256-1.54 0-.556-.086-1.068-.256-1.534a2.498 2.498 0 0 0-.773-1.13c-.348-.284-.788-.427-1.318-.427-.534 0-.977.143-1.329.427a2.54 2.54 0 0 0-.779 1.13c-.167.466-.25.978-.25 1.535 0 .56.083 1.073.25 1.54.171.465.43.838.779 1.118.352.28.795.421 1.329.421zm11.307-2.37V9.274h1.705V18h-1.671v-1.511h-.09a2.727 2.727 0 0 1-.966 1.164c-.44.307-.987.46-1.642.46-.561 0-1.057-.122-1.489-.369-.428-.25-.765-.619-1.011-1.108-.243-.488-.364-1.092-.364-1.812V9.273h1.699v5.346c0 .595.165 1.069.494 1.42.33.353.758.53 1.284.53.318 0 .635-.08.949-.24.318-.159.582-.4.79-.721.212-.322.316-.731.312-1.227zM215.11 18V9.273h1.642v1.386h.09c.16-.47.44-.839.841-1.108a2.407 2.407 0 0 1 1.375-.409 7.261 7.261 0 0 1 .722.04v1.625a3.022 3.022 0 0 0-.364-.063 3.462 3.462 0 0 0-.522-.04c-.402 0-.76.086-1.074.256a1.899 1.899 0 0 0-1.012 1.71V18h-1.698zm12.554.193a3.564 3.564 0 0 1-1.5-.307 2.524 2.524 0 0 1-1.062-.903c-.258-.394-.387-.877-.387-1.449 0-.492.095-.898.285-1.216.189-.318.445-.57.767-.755a4 4 0 0 1 1.079-.421 10.62 10.62 0 0 1 1.216-.216l1.273-.148c.326-.041.562-.107.71-.199.148-.09.222-.238.222-.443v-.04c0-.496-.141-.88-.421-1.153-.276-.272-.689-.409-1.239-.409-.571 0-1.022.127-1.352.38-.326.25-.551.53-.676.836l-1.597-.364c.19-.53.466-.958.83-1.284.367-.33.79-.568 1.267-.716a4.945 4.945 0 0 1 1.506-.227c.348 0 .718.042 1.108.125.394.08.761.227 1.102.443.345.216.627.525.847.926.219.398.329.915.329 1.551V18h-1.659v-1.193h-.068c-.11.22-.275.435-.494.648-.22.212-.502.388-.847.528s-.758.21-1.239.21zm.37-1.364c.469 0 .871-.092 1.204-.278.337-.185.593-.428.767-.727.178-.303.267-.627.267-.972v-1.125c-.06.06-.178.118-.352.17a5.11 5.11 0 0 1-.585.131c-.22.034-.434.067-.642.097l-.523.068a4.24 4.24 0 0 0-.903.21c-.269.099-.485.24-.648.426-.159.182-.239.425-.239.728 0 .42.156.739.466.954.311.213.707.319 1.188.319zm6.02 4.444v-12h1.659v1.415h.142c.099-.182.241-.393.426-.631.186-.239.443-.447.773-.625.329-.182.765-.273 1.307-.273.704 0 1.333.178 1.886.534.553.356.987.87 1.301 1.54.318.67.478 1.477.478 2.42 0 .944-.158 1.752-.472 2.426-.314.671-.746 1.188-1.296 1.552-.549.36-1.176.54-1.88.54-.531 0-.964-.09-1.301-.268a2.45 2.45 0 0 1-.784-.625 4.657 4.657 0 0 1-.438-.636h-.102v4.63h-1.699zm1.665-7.637c0 .614.089 1.152.267 1.614.178.462.435.824.772 1.085.338.258.75.387 1.239.387.508 0 .932-.135 1.273-.404.341-.273.598-.642.773-1.108.178-.466.267-.99.267-1.574a4.34 4.34 0 0 0-.262-1.55c-.17-.46-.428-.82-.772-1.086-.341-.265-.768-.398-1.279-.398-.492 0-.909.127-1.25.381-.337.254-.593.608-.767 1.063-.174.454-.261.984-.261 1.59zm10.57 4.557a3.564 3.564 0 0 1-1.5-.307 2.533 2.533 0 0 1-1.063-.903c-.257-.394-.386-.877-.386-1.449 0-.492.095-.898.284-1.216.189-.318.445-.57.767-.755a4.006 4.006 0 0 1 1.08-.421c.397-.095.803-.167 1.215-.216l1.273-.148c.326-.041.563-.107.71-.199.148-.09.222-.238.222-.443v-.04c0-.496-.14-.88-.42-1.153-.277-.272-.69-.409-1.239-.409-.572 0-1.023.127-1.352.38-.326.25-.552.53-.677.836l-1.596-.364c.189-.53.466-.958.829-1.284a3.37 3.37 0 0 1 1.267-.716 4.97 4.97 0 0 1 1.506-.227c.349 0 .718.042 1.108.125.394.08.761.227 1.102.443.345.216.627.525.847.926.22.398.33.915.33 1.551V18h-1.66v-1.193h-.068c-.11.22-.274.435-.494.648-.22.212-.502.388-.847.528-.344.14-.757.21-1.238.21zm.369-1.364c.47 0 .871-.092 1.205-.278.337-.185.592-.428.767-.727.178-.303.267-.627.267-.972v-1.125c-.061.06-.178.118-.353.17-.17.05-.365.094-.585.131-.22.034-.434.067-.642.097l-.523.068a4.27 4.27 0 0 0-.903.21c-.269.099-.485.24-.648.426-.159.182-.238.425-.238.728 0 .42.155.739.466.954.31.213.706.319 1.187.319zm6.02 1.171V9.273h1.642v1.386h.091c.159-.47.44-.839.841-1.108a2.404 2.404 0 0 1 1.375-.409 7.261 7.261 0 0 1 .722.04v1.625a3.06 3.06 0 0 0-.364-.063 3.466 3.466 0 0 0-.523-.04c-.401 0-.759.086-1.073.256a1.899 1.899 0 0 0-1.012 1.71V18h-1.699zm10.55-8.727v1.363h-4.767V9.273h4.767zm-3.488-2.091h1.699v8.255c0 .33.049.578.147.745a.775.775 0 0 0 .381.335c.159.057.331.085.517.085.136 0 .256-.01.358-.028.102-.02.182-.034.239-.046l.307 1.404a2.878 2.878 0 0 1-.421.114 3.335 3.335 0 0 1-.682.068 2.992 2.992 0 0 1-1.25-.239 2.141 2.141 0 0 1-.937-.773c-.239-.348-.358-.786-.358-1.312V7.182zM264.928 18V9.273h1.63v1.42h.108a2.26 2.26 0 0 1 .892-1.125c.413-.273.908-.409 1.483-.409.584 0 1.072.136 1.466.41.398.272.691.647.881 1.124h.091c.208-.466.54-.837.994-1.113.455-.28.996-.42 1.625-.42.792 0 1.438.247 1.938.743.503.497.755 1.245.755 2.245V18h-1.699v-5.693c0-.591-.161-1.02-.483-1.284a1.754 1.754 0 0 0-1.153-.398c-.553 0-.983.17-1.29.511-.307.338-.46.771-.46 1.302V18h-1.693v-5.801c0-.474-.148-.854-.443-1.142-.296-.288-.68-.432-1.154-.432-.322 0-.619.085-.892.256a1.88 1.88 0 0 0-.653.698 2.14 2.14 0 0 0-.244 1.04V18h-1.699zm17.722.176c-.86 0-1.601-.184-2.222-.551a3.74 3.74 0 0 1-1.432-1.563c-.333-.674-.5-1.464-.5-2.369 0-.894.167-1.682.5-2.364a3.883 3.883 0 0 1 1.409-1.596c.606-.383 1.315-.574 2.125-.574.493 0 .97.082 1.432.244.462.163.877.419 1.244.768.368.348.658.8.87 1.357.212.553.318 1.226.318 2.018v.602h-6.938v-1.273h5.273c0-.447-.091-.843-.273-1.188a2.053 2.053 0 0 0-.767-.823c-.325-.201-.708-.302-1.147-.302-.478 0-.894.118-1.25.353a2.356 2.356 0 0 0-.818.909c-.19.371-.285.774-.285 1.21v.994c0 .584.103 1.08.307 1.489.209.41.498.722.87.938.371.212.804.318 1.301.318.322 0 .615-.046.88-.137.266-.094.495-.235.688-.42.193-.186.341-.415.443-.688l1.608.29c-.129.474-.36.888-.693 1.245-.33.352-.744.626-1.244.823-.497.194-1.063.29-1.699.29zm7.148-5.358V18h-1.699V9.273h1.631v1.42h.108c.2-.462.515-.833.943-1.113.432-.28.975-.42 1.63-.42.595 0 1.116.124 1.563.374.447.246.793.614 1.04 1.102.246.489.369 1.093.369 1.813V18h-1.699v-5.347c0-.632-.165-1.127-.494-1.482-.33-.36-.782-.54-1.358-.54-.394 0-.744.085-1.051.255-.303.17-.544.42-.722.75-.174.326-.261.72-.261 1.182zm11.757-3.545v1.363h-4.767V9.273h4.767zm-3.488-2.091h1.699v8.255c0 .33.049.578.147.745a.775.775 0 0 0 .381.335c.159.057.331.085.517.085.136 0 .256-.01.358-.028.102-.02.182-.034.239-.046l.306 1.404a2.823 2.823 0 0 1-.42.114 3.335 3.335 0 0 1-.682.068 2.989 2.989 0 0 1-1.25-.239 2.141 2.141 0 0 1-.937-.773c-.239-.348-.358-.786-.358-1.312V7.182zm7.398 9.227-.085.62a10.04 10.04 0 0 1-.29 1.42 22.14 22.14 0 0 1-.415 1.38c-.14.425-.256.762-.347 1.012h-1.204c.049-.235.117-.553.204-.955.088-.397.173-.842.256-1.335.083-.492.146-.994.188-1.505l.056-.637h1.637zM4.818 42.176c-.845 0-1.572-.191-2.182-.574a3.8 3.8 0 0 1-1.397-1.596C.913 39.328.75 38.55.75 37.676c0-.886.167-1.668.5-2.346a3.83 3.83 0 0 1 1.41-1.597c.605-.383 1.32-.574 2.141-.574.663 0 1.254.123 1.773.37A3.18 3.18 0 0 1 7.83 34.55c.322.44.513.953.573 1.54H6.75a1.98 1.98 0 0 0-.625-1.057c-.322-.295-.754-.443-1.295-.443a2.11 2.11 0 0 0-1.245.375c-.352.246-.627.598-.824 1.057-.197.454-.295.992-.295 1.613 0 .637.096 1.186.29 1.648.193.462.466.82.818 1.074.356.254.774.38 1.256.38.322 0 .613-.058.875-.175a1.79 1.79 0 0 0 .664-.518 1.94 1.94 0 0 0 .381-.806h1.653a3.213 3.213 0 0 1-.55 1.511 3.171 3.171 0 0 1-1.234 1.045c-.511.254-1.111.381-1.8.381zm7.762.017a3.564 3.564 0 0 1-1.5-.307 2.528 2.528 0 0 1-1.063-.903c-.257-.394-.386-.877-.386-1.449 0-.492.095-.898.284-1.216.19-.318.445-.57.767-.755a4.006 4.006 0 0 1 1.08-.421c.397-.095.803-.167 1.216-.216l1.272-.148c.326-.041.563-.108.71-.198.148-.091.222-.24.222-.444v-.04c0-.496-.14-.88-.42-1.153-.277-.273-.69-.409-1.239-.409-.572 0-1.023.127-1.352.38-.326.25-.551.53-.676.836l-1.597-.364c.19-.53.466-.958.83-1.284.367-.33.79-.568 1.267-.716a4.959 4.959 0 0 1 1.505-.227c.349 0 .718.042 1.108.125.394.08.762.227 1.103.443.344.216.626.525.846.926.22.398.33.915.33 1.552V42h-1.66v-1.193h-.068c-.11.22-.274.435-.494.648-.22.212-.502.388-.846.528-.345.14-.758.21-1.24.21zm.37-1.363c.469 0 .87-.093 1.204-.279a1.95 1.95 0 0 0 .767-.727c.178-.303.267-.627.267-.972v-1.125c-.06.06-.178.118-.352.17a5.3 5.3 0 0 1-.586.131c-.22.035-.433.067-.642.097-.208.026-.382.05-.522.068-.33.042-.631.112-.904.21-.269.099-.485.24-.648.427-.159.181-.238.424-.238.727 0 .42.155.738.466.954.31.212.706.319 1.187.319zm7.718-4.012V42H18.97v-8.727h1.63v1.42h.108c.2-.462.515-.833.943-1.113.432-.28.976-.42 1.631-.42.595 0 1.116.124 1.563.374.447.246.793.614 1.04 1.102.245.489.369 1.093.369 1.813V42h-1.7v-5.347c0-.632-.164-1.127-.493-1.483-.33-.36-.783-.54-1.358-.54-.394 0-.745.086-1.052.256-.303.17-.543.42-.721.75-.174.326-.262.72-.262 1.182zm13.63-6.454V42h-1.755V30.364h1.755zM40.73 42V30.364h1.699v4.323h.102a4.67 4.67 0 0 1 .426-.63 2.41 2.41 0 0 1 .773-.625c.33-.182.765-.273 1.306-.273.705 0 1.334.178 1.887.534.553.356.987.87 1.301 1.54.318.67.477 1.477.477 2.42 0 .944-.157 1.752-.471 2.427-.315.67-.747 1.187-1.296 1.55-.549.36-1.176.54-1.88.54-.53 0-.965-.089-1.302-.267a2.462 2.462 0 0 1-.784-.625 4.724 4.724 0 0 1-.437-.636h-.142V42h-1.66zm1.664-4.364c0 .614.09 1.152.267 1.614.178.462.436.824.773 1.085.337.258.75.387 1.239.387.507 0 .932-.135 1.273-.404.34-.273.598-.642.772-1.108.178-.466.267-.99.267-1.574a4.34 4.34 0 0 0-.261-1.55c-.17-.46-.428-.82-.773-1.086-.34-.265-.767-.398-1.278-.398-.493 0-.91.127-1.25.381-.337.254-.593.608-.767 1.063-.175.454-.262.984-.262 1.59zM50.43 42v-8.727h1.642v1.386h.09c.16-.47.44-.839.842-1.108a2.402 2.402 0 0 1 1.375-.409 7.242 7.242 0 0 1 .721.04v1.625a3.048 3.048 0 0 0-.363-.063 3.47 3.47 0 0 0-.523-.04c-.401 0-.76.086-1.074.256a1.9 1.9 0 0 0-1.011 1.71V42h-1.7zm5.96 0v-8.727h1.7V42h-1.7zm.858-10.074a1.08 1.08 0 0 1-.76-.295.96.96 0 0 1-.313-.716c0-.28.104-.52.312-.716.212-.2.466-.301.762-.301.295 0 .547.1.755.3a.941.941 0 0 1 .318.717.953.953 0 0 1-.318.716 1.06 1.06 0 0 1-.755.295zm4.646 4.892V42h-1.7v-8.727h1.632v1.42h.108c.2-.462.515-.833.943-1.113.432-.28.975-.42 1.63-.42.595 0 1.116.124 1.563.374.447.246.793.614 1.04 1.102.246.489.369 1.093.369 1.813V42H65.78v-5.347c0-.632-.165-1.127-.494-1.483-.33-.36-.782-.54-1.358-.54-.394 0-.744.086-1.051.256-.303.17-.544.42-.722.75-.174.326-.261.72-.261 1.182zm11.343 8.637c-.694 0-1.29-.091-1.79-.273-.496-.182-.902-.422-1.216-.722a3.03 3.03 0 0 1-.705-.983l1.46-.602c.103.167.24.343.41.528.174.19.409.35.704.483.3.133.684.2 1.154.2.644 0 1.176-.158 1.596-.472.42-.311.63-.807.63-1.489v-1.716h-.107c-.102.186-.25.392-.443.62a2.4 2.4 0 0 1-.784.59c-.334.167-.767.25-1.301.25-.69 0-1.311-.16-1.864-.483-.55-.325-.985-.805-1.307-1.437-.318-.636-.477-1.419-.477-2.347 0-.928.157-1.723.471-2.386.319-.663.754-1.17 1.307-1.523a3.399 3.399 0 0 1 1.88-.534c.543 0 .98.091 1.313.273.334.178.593.386.779.625.19.238.335.449.437.63h.125v-1.414h1.665v8.92c0 .75-.174 1.366-.523 1.847-.348.48-.82.837-1.415 1.068-.59.231-1.257.347-2 .347zm-.017-4.995c.488 0 .901-.113 1.238-.34.341-.232.599-.561.773-.99.178-.431.267-.948.267-1.55 0-.588-.087-1.105-.261-1.552-.175-.447-.43-.795-.767-1.045-.338-.254-.754-.38-1.25-.38-.512 0-.938.132-1.279.397-.34.261-.598.617-.773 1.068-.17.45-.255.955-.255 1.512 0 .572.087 1.073.261 1.505.174.432.432.77.773 1.012.344.242.769.363 1.273.363zm12.647 1.733a3.564 3.564 0 0 1-1.5-.307 2.527 2.527 0 0 1-1.063-.903c-.257-.394-.386-.877-.386-1.449 0-.492.094-.898.284-1.216.19-.318.445-.57.767-.755a4.008 4.008 0 0 1 1.08-.421c.397-.095.802-.167 1.215-.216l1.273-.148c.326-.041.563-.108.71-.198.148-.091.222-.24.222-.444v-.04c0-.496-.14-.88-.42-1.153-.277-.273-.69-.409-1.24-.409-.571 0-1.022.127-1.352.38-.325.25-.55.53-.676.836l-1.596-.364c.19-.53.466-.958.83-1.284.367-.33.79-.568 1.266-.716a4.97 4.97 0 0 1 1.506-.227c.349 0 .718.042 1.108.125.394.08.761.227 1.102.443.345.216.627.525.847.926.22.398.33.915.33 1.552V42h-1.66v-1.193h-.068c-.11.22-.274.435-.494.648-.22.212-.502.388-.847.528-.344.14-.757.21-1.238.21zm.369-1.363c.47 0 .871-.093 1.204-.279a1.95 1.95 0 0 0 .768-.727c.178-.303.267-.627.267-.972v-1.125c-.061.06-.178.118-.353.17-.17.05-.365.093-.585.131-.22.035-.434.067-.642.097-.208.026-.383.05-.523.068-.33.042-.63.112-.903.21a1.54 1.54 0 0 0-.648.427c-.159.181-.238.424-.238.727 0 .42.155.738.465.954.311.212.707.319 1.188.319zm7.719-10.466V42h-1.699V30.364h1.699zm5.782 11.812c-.819 0-1.532-.187-2.142-.562a3.793 3.793 0 0 1-1.42-1.574c-.338-.675-.507-1.462-.507-2.364 0-.905.17-1.697.506-2.375a3.786 3.786 0 0 1 1.42-1.58c.61-.374 1.325-.562 2.143-.562.818 0 1.532.188 2.142.563.61.375 1.083.901 1.42 1.58.337.677.506 1.469.506 2.374 0 .902-.169 1.69-.506 2.364a3.79 3.79 0 0 1-1.42 1.574c-.61.375-1.324.562-2.142.562zm.005-1.426c.531 0 .97-.14 1.319-.42.348-.28.606-.654.772-1.12.171-.466.256-.979.256-1.54 0-.556-.085-1.068-.256-1.534a2.497 2.497 0 0 0-.772-1.13c-.349-.284-.788-.426-1.319-.426-.534 0-.977.142-1.33.426a2.54 2.54 0 0 0-.778 1.13c-.166.466-.25.978-.25 1.534 0 .561.084 1.074.25 1.54.17.466.43.84.779 1.12.352.28.795.42 1.33.42zm7.478-3.932V42h-1.699v-8.727h1.631v1.42h.108c.201-.462.515-.833.943-1.113.432-.28.975-.42 1.631-.42.594 0 1.115.124 1.562.374.447.246.794.614 1.04 1.102.246.489.369 1.093.369 1.813V42h-1.699v-5.347c0-.632-.164-1.127-.494-1.483-.329-.36-.782-.54-1.358-.54-.394 0-.744.086-1.051.256-.303.17-.544.42-.722.75-.174.326-.261.72-.261 1.182zm11.343 8.637c-.693 0-1.29-.091-1.79-.273-.496-.182-.902-.422-1.216-.722a3.03 3.03 0 0 1-.704-.983l1.46-.602c.102.167.238.343.409.528.174.19.409.35.704.483.3.133.684.2 1.154.2.644 0 1.176-.158 1.596-.472.421-.311.631-.807.631-1.489v-1.716h-.108c-.102.186-.25.392-.443.62a2.394 2.394 0 0 1-.784.59c-.333.167-.767.25-1.301.25-.69 0-1.311-.16-1.864-.483-.549-.325-.985-.805-1.307-1.437-.318-.636-.477-1.419-.477-2.347 0-.928.157-1.723.472-2.386.318-.663.753-1.17 1.306-1.523a3.399 3.399 0 0 1 1.881-.534c.542 0 .979.091 1.313.273.333.178.592.386.778.625.189.238.335.449.437.63h.125v-1.414h1.665v8.92c0 .75-.174 1.366-.522 1.847a3.083 3.083 0 0 1-1.415 1.068c-.591.231-1.258.347-2 .347zm-.017-4.995c.488 0 .901-.113 1.238-.34.341-.232.599-.561.773-.99.178-.431.267-.948.267-1.55 0-.588-.087-1.105-.261-1.552-.174-.447-.43-.795-.767-1.045-.337-.254-.754-.38-1.25-.38-.512 0-.938.132-1.279.397-.341.261-.598.617-.772 1.068-.171.45-.256.955-.256 1.512 0 .572.087 1.073.261 1.505.175.432.432.77.773 1.012.345.242.769.363 1.273.363zM128.652 42v-8.727h1.631v1.42h.108a2.26 2.26 0 0 1 .892-1.125c.413-.273.907-.409 1.483-.409.583 0 1.072.136 1.466.41a2.4 2.4 0 0 1 .88 1.124h.091a2.46 2.46 0 0 1 .995-1.113c.454-.28.996-.42 1.625-.42.791 0 1.437.247 1.937.743.504.497.756 1.245.756 2.245V42h-1.699v-5.693c0-.591-.161-1.02-.483-1.284a1.759 1.759 0 0 0-1.154-.398c-.553 0-.982.17-1.289.511-.307.337-.461.771-.461 1.301V42h-1.693v-5.801c0-.474-.147-.854-.443-1.142-.295-.288-.68-.432-1.153-.432-.322 0-.62.085-.892.256a1.88 1.88 0 0 0-.654.699 2.14 2.14 0 0 0-.244 1.04V42h-1.699zm14.722 3.273a3.51 3.51 0 0 1-.693-.063 2.182 2.182 0 0 1-.466-.125l.409-1.392c.311.084.587.12.83.108a.994.994 0 0 0 .642-.273c.189-.17.356-.448.5-.835l.21-.58-3.193-8.84h1.818l2.21 6.772h.091l2.21-6.772h1.824l-3.597 9.892a3.922 3.922 0 0 1-.636 1.153 2.465 2.465 0 0 1-.92.716c-.356.16-.769.239-1.239.239zM155.214 42v-1.273l3.938-4.08c.42-.442.767-.83 1.04-1.164a4.38 4.38 0 0 0 .619-.96c.136-.303.204-.625.204-.966 0-.387-.09-.72-.272-1a1.782 1.782 0 0 0-.745-.654 2.363 2.363 0 0 0-1.062-.232c-.417 0-.78.085-1.091.255-.311.17-.549.411-.716.722-.167.31-.25.674-.25 1.09h-1.676c0-.708.163-1.327.489-1.857a3.31 3.31 0 0 1 1.341-1.233c.568-.296 1.214-.444 1.937-.444.731 0 1.375.146 1.932.438.56.288.998.682 1.312 1.182a3.07 3.07 0 0 1 .472 1.682c0 .431-.082.854-.244 1.267-.159.413-.438.873-.836 1.38-.397.504-.95 1.116-1.659 1.836l-2.312 2.42v.085h5.238V42h-7.659zm16.977.17a3.38 3.38 0 0 1-1.886-.54c-.55-.363-.981-.88-1.296-1.55-.31-.675-.466-1.483-.466-2.427 0-.943.157-1.75.472-2.42.318-.67.754-1.184 1.307-1.54a3.398 3.398 0 0 1 1.88-.534c.542 0 .978.091 1.307.273.333.178.591.386.773.625.185.238.329.449.432.63h.102v-4.323h1.699V42h-1.659v-1.358h-.142c-.103.186-.25.398-.443.636a2.46 2.46 0 0 1-.785.625c-.333.178-.765.267-1.295.267zm.375-1.448c.489 0 .901-.13 1.239-.387.341-.261.598-.623.772-1.085.178-.462.267-1 .267-1.614 0-.606-.087-1.136-.261-1.59-.174-.455-.43-.81-.767-1.063-.337-.254-.754-.38-1.25-.38-.511 0-.938.132-1.278.397-.341.265-.599.627-.773 1.085a4.414 4.414 0 0 0-.256 1.551c0 .584.087 1.108.262 1.574.174.466.431.835.772 1.108.345.27.769.404 1.273.404zm9.87 1.454c-.819 0-1.533-.187-2.142-.562a3.792 3.792 0 0 1-1.421-1.574c-.337-.675-.506-1.462-.506-2.364 0-.905.169-1.697.506-2.375a3.785 3.785 0 0 1 1.421-1.58c.609-.374 1.323-.562 2.142-.562.818 0 1.532.188 2.142.563.61.375 1.083.901 1.42 1.58.337.677.506 1.469.506 2.374 0 .902-.169 1.69-.506 2.364a3.79 3.79 0 0 1-1.42 1.574c-.61.375-1.324.562-2.142.562zm.005-1.426c.531 0 .97-.14 1.319-.42.348-.28.606-.654.772-1.12.171-.466.256-.979.256-1.54 0-.556-.085-1.068-.256-1.534a2.497 2.497 0 0 0-.772-1.13c-.349-.284-.788-.426-1.319-.426-.534 0-.977.142-1.329.426a2.54 2.54 0 0 0-.779 1.13c-.166.466-.25.978-.25 1.534 0 .561.084 1.074.25 1.54.171.466.43.84.779 1.12.352.28.795.42 1.329.42zm9.438 4.705c-.693 0-1.29-.091-1.79-.273-.496-.182-.901-.422-1.215-.722a3.016 3.016 0 0 1-.705-.983l1.46-.602c.103.167.239.343.409.528.175.19.409.35.705.483.299.133.684.2 1.153.2.644 0 1.176-.158 1.597-.472.42-.311.631-.807.631-1.489v-1.716h-.108c-.103.186-.25.392-.444.62-.189.227-.45.424-.784.59-.333.167-.767.25-1.301.25-.689 0-1.31-.16-1.863-.483-.55-.325-.985-.805-1.307-1.437-.318-.636-.478-1.419-.478-2.347 0-.928.158-1.723.472-2.386.318-.663.754-1.17 1.307-1.523a3.399 3.399 0 0 1 1.881-.534c.541 0 .979.091 1.312.273.333.178.593.386.778.625.19.238.336.449.438.63h.125v-1.414h1.665v8.92c0 .75-.174 1.366-.523 1.847-.348.48-.82.837-1.415 1.068-.591.231-1.257.347-2 .347zm-.017-4.995c.489 0 .902-.113 1.239-.34.341-.232.598-.561.773-.99.178-.431.267-.948.267-1.55 0-.588-.087-1.105-.262-1.552-.174-.447-.43-.795-.767-1.045-.337-.254-.754-.38-1.25-.38-.511 0-.937.132-1.278.397a2.397 2.397 0 0 0-.773 1.068c-.17.45-.256.955-.256 1.512 0 .572.088 1.073.262 1.505.174.432.432.77.772 1.012.345.242.769.363 1.273.363zm12.593-5.057-1.54.273a1.8 1.8 0 0 0-.307-.562 1.52 1.52 0 0 0-.556-.438c-.235-.114-.529-.17-.881-.17-.481 0-.883.108-1.205.324-.322.212-.483.486-.483.823 0 .292.108.527.324.705.216.178.565.324 1.046.438l1.386.318c.803.185 1.402.471 1.795.858.394.386.591.888.591 1.505 0 .523-.151.989-.454 1.398-.299.405-.718.724-1.256.955-.534.23-1.153.346-1.858.346-.977 0-1.774-.208-2.392-.625-.617-.42-.996-1.017-1.136-1.79l1.642-.25c.102.428.312.752.631.972.318.216.732.324 1.244.324.557 0 1.002-.116 1.335-.347.333-.235.5-.52.5-.858a.89.89 0 0 0-.307-.687c-.2-.186-.509-.326-.926-.42l-1.477-.325c-.815-.185-1.417-.48-1.807-.886-.386-.405-.58-.919-.58-1.54a2.2 2.2 0 0 1 .432-1.352c.288-.386.686-.688 1.193-.903.508-.22 1.09-.33 1.745-.33.943 0 1.685.205 2.227.614.542.405.9.949 1.074 1.63zm3.716 3.25v-.108c.008-.704.078-1.265.21-1.681.137-.417.33-.754.58-1.012.25-.257.551-.492.903-.704.228-.144.432-.305.614-.483s.326-.383.432-.614c.106-.23.159-.487.159-.767 0-.337-.08-.629-.239-.875a1.59 1.59 0 0 0-.636-.568 1.861 1.861 0 0 0-.875-.205c-.292 0-.57.061-.835.182s-.485.31-.659.568c-.175.254-.275.582-.301.983h-1.728c.027-.681.199-1.257.517-1.727a3.022 3.022 0 0 1 1.262-1.074 4.12 4.12 0 0 1 1.744-.364c.697 0 1.307.131 1.83.393.522.257.928.619 1.215 1.085.292.462.438 1.002.438 1.62 0 .423-.066.806-.199 1.147a2.86 2.86 0 0 1-.568.903 3.89 3.89 0 0 1-.875.705c-.322.2-.583.409-.784.625a1.99 1.99 0 0 0-.432.767c-.091.295-.14.66-.148 1.096v.108h-1.625zm.858 3.455c-.31 0-.577-.11-.801-.33a1.102 1.102 0 0 1-.335-.806c0-.311.112-.576.335-.796.224-.223.491-.335.801-.335.307 0 .572.112.796.335.227.22.341.485.341.796 0 .208-.053.4-.16.573a1.18 1.18 0 0 1-.409.41 1.08 1.08 0 0 1-.568.153z"/></svg>